<svg t="1686402333251" class="icon" viewBox="0 0 1024 1024" version="1.1" xmlns="http://www.w3.org/2000/svg" p-id="63541" width="16" height="16"><path d="M491.5 116.359l-312.202 180.25a40 40 0 0 0-20 34.641v360.5a40 40 0 0 0 20 34.641L491.5 906.641a40 40 0 0 0 40 0l312.202-180.25a40 40 0 0 0 20-34.641v-360.5a40 40 0 0 0-20-34.641L531.5 116.359a40 40 0 0 0-40 0z m20 80.829l272.202 157.156v314.311L511.5 825.811 239.297 668.655V354.344L511.5 197.188z" fill="#000000" p-id="63542"></path><path d="M803.702 297.109c19.132-11.046 43.595-4.49 54.641 14.641 10.935 18.94 4.62 43.107-14.07 54.306l-0.57 0.335L531.5 546.641a40 40 0 0 1-39.535 0.265l-0.465-0.265-312.202-180.25c-19.132-11.046-25.687-35.51-14.641-54.641 10.935-18.94 35.021-25.554 54.065-14.967l0.576 0.326L511.5 465.811l292.202-168.702z" fill="#000000" p-id="63543"></path><path d="M511.968 471.5c21.871-0.017 39.656 17.521 40.026 39.307l0.006 0.661 0.284 360.5c0.017 22.092-17.877 40.015-39.968 40.032-21.871 0.017-39.656-17.521-40.026-39.307l-0.006-0.661-0.284-360.5c-0.017-22.092 17.877-40.015 39.968-40.032z" fill="#000000" p-id="63544"></path></svg>
