<svg t="1702480345104" class="icon" viewBox="0 0 1024 1024" version="1.1" xmlns="http://www.w3.org/2000/svg" p-id="9920" width="16" height="16"><path d="M512 311.893333m-178.773333 0a178.773333 178.773333 0 1 0 357.546666 0 178.773333 178.773333 0 1 0-357.546666 0Z" fill="#FF354A" p-id="9921"></path><path d="M746.666667 890.88H277.333333c-47.146667 0-85.333333-38.186667-85.333333-85.333333v-384c0-47.146667 38.186667-85.333333 85.333333-85.333334h469.333334c47.146667 0 85.333333 38.186667 85.333333 85.333334v384c0 47.146667-38.186667 85.333333-85.333333 85.333333z" fill="#2953FF" p-id="9922"></path><path d="M345.386667 708.48v-149.333333a53.333333 53.333333 0 0 1 106.666666 0v149.333333a53.333333 53.333333 0 0 1-106.666666 0zM571.946667 708.48v-149.333333a53.333333 53.333333 0 0 1 106.666666 0v149.333333a53.333333 53.333333 0 0 1-106.666666 0z" fill="#93A8FF" p-id="9923"></path><path d="M857.813333 397.226667H166.186667C133.333333 397.226667 106.666667 370.56 106.666667 337.706667v-8.746667c0-32.853333 26.666667-59.52 59.52-59.52H857.6c32.853333 0 59.52 26.666667 59.52 59.52v8.746667a59.221333 59.221333 0 0 1-59.306667 59.52z" fill="#FCCA1E" p-id="9924"></path></svg>
