<?xml version="1.0" standalone="no"?><!DOCTYPE svg PUBLIC "-//W3C//DTD SVG 1.1//EN" "http://www.w3.org/Graphics/SVG/1.1/DTD/svg11.dtd"><svg t="1700658954511" class="icon" viewBox="0 0 1024 1024" version="1.1" xmlns="http://www.w3.org/2000/svg" p-id="45790" width="25" height="25" xmlns:xlink="http://www.w3.org/1999/xlink"><path d="M740.36 928.29H285.54c-103.27 0-186.96-83.68-186.96-186.96V286.52c0-103.27 83.69-186.96 186.96-186.96h454.82c103.27 0 186.96 83.69 186.96 186.96v454.82c0 103.27-83.69 186.95-186.96 186.95z m0 0" fill="#009CF5" p-id="45791"></path><path d="M528.48 582.31H437.5L506 464.09l6.95-12.05 46.94-80.67 9.04-15.76 19.47-33.38c8.58-14.6 8.81-33.38-0.93-47.17-8.34-11.82-20.28-16.58-32.1-16.58-13.91 0-27.47 7.18-35.12 20.17l-6.95 12.29-7.19-12.29c-7.65-12.98-21.33-20.17-35.12-20.17-6.96 0-13.91 1.62-20.4 5.33-19.24 11.12-25.85 36.04-14.6 55.29l30.25 52.28-122.39 211.16h-79.51c-24.34 0.23-43.81 21.79-39.99 47.18 3.01 19.94 21.67 33.84 41.84 33.84h30.72l93.65-0.23h186.96c3.48 0 6.96-1.51 9.04-4.29 10.66-14.26 18.54-36.39-7.53-59.23-13.8-12.17-32.23-17.5-50.55-17.5z m0 0" fill="#FFFFFF" p-id="45792"></path><path d="M759.83 582.08h-77.89l-104.2-179.77c-1.85-3.13-6.03-4.17-8.92-2.09-14.6 10.55-23.18 25.27-27.59 41.5-7.42 27.36-1.28 56.68 12.87 81.25l22.37 38.83 11.82 20.63 46.94 80.9 4.87 8.11 45.09 77.89c7.65 12.98 21.1 20.17 34.89 20.17 6.95 0 14.14-1.85 20.63-5.56 19.24-11.13 25.85-35.81 14.6-55.29L729 663.1h32.8c24.34 0 43.7-22.02 39.75-47.4-3.24-19.83-21.67-33.62-41.72-33.62z m-421.67 91.8c-14.26-5.79-27.7-5.1-38.48-2.09-5.91 1.62-10.78 5.68-13.79 10.9l-15.06 25.73c-11.36 19.47-4.64 44.16 14.6 55.29 6.49 3.7 13.68 5.56 20.63 5.56 13.91 0 27.24-7.19 34.66-20.17l17.16-29.55c4.17-7.3 4.98-16.11 1.85-23.88-3.48-8.69-9.97-17.04-21.57-21.79z m0 0" fill="#FFFFFF" p-id="45793"></path></svg>