<?xml version="1.0" standalone="no"?><!DOCTYPE svg PUBLIC "-//W3C//DTD SVG 1.1//EN" "http://www.w3.org/Graphics/SVG/1.1/DTD/svg11.dtd"><svg t="1700708325888" class="icon" viewBox="0 0 1024 1024" version="1.1" xmlns="http://www.w3.org/2000/svg" p-id="5687" xmlns:xlink="http://www.w3.org/1999/xlink" width="25" height="25"><path d="M270.719027 301.237004v-79.519085a103.140931 103.140931 0 0 0-206.281861 0L63.501647 512.898098a392.917831 392.917831 0 0 1 207.21738-211.661094z" fill="#222222" p-id="5688"></path><path d="M938.913221 586.336312a114.601034 114.601034 0 0 0-160.441448-23.387967l-2.104917 1.637158 1.871037-438.290486a126.061138 126.061138 0 1 0-252.122275 0v185.232692a363.448994 363.448994 0 1 0 94.955143 654.863053 113.431636 113.431636 0 0 0 23.387966-13.565021l272.703685-206.047981a114.601034 114.601034 0 0 0 21.750809-160.441448z m-514.535256 239.960532a166.288439 166.288439 0 1 1 166.990078-165.5868 166.288439 166.288439 0 0 1-166.522319 165.5868z" fill="#222222" p-id="5689"></path></svg>