<?xml version="1.0" standalone="no"?><!DOCTYPE svg PUBLIC "-//W3C//DTD SVG 1.1//EN" "http://www.w3.org/Graphics/SVG/1.1/DTD/svg11.dtd"><svg t="1702471295707" class="icon" viewBox="0 0 1024 1024" version="1.1" xmlns="http://www.w3.org/2000/svg" p-id="1465" xmlns:xlink="http://www.w3.org/1999/xlink" width="16" height="16"><path d="M563.2 204.8m102.4 0l102.4 0q102.4 0 102.4 102.4l0 204.8q0 102.4-102.4 102.4l-102.4 0q-102.4 0-102.4-102.4l0-204.8q0-102.4 102.4-102.4Z" fill="#36C196" p-id="1466"></path><path d="M153.6 102.4m102.4 0l307.2 0q102.4 0 102.4 102.4l0 307.2q0 102.4-102.4 102.4l-307.2 0q-102.4 0-102.4-102.4l0-307.2q0-102.4 102.4-102.4Z" fill="#FFBA40" p-id="1467"></path><path d="M471.552 248.6272l-61.44-30.72-61.44 30.72a10.24 10.24 0 0 1-14.848-9.216V102.4h153.6v137.0112a10.24 10.24 0 0 1-15.872 9.216z" fill="#2A44A1" p-id="1468"></path><path d="M735.232 870.4H288.768a102.4 102.4 0 0 1-100.4544-81.92L102.4 358.4h819.2l-85.9136 430.08a102.4 102.4 0 0 1-100.4544 81.92z" fill="#3D60F6" p-id="1469"></path><path d="M491.52 512m25.6 0l0 0q25.6 0 25.6 25.6l0 256q0 25.6-25.6 25.6l0 0q-25.6 0-25.6-25.6l0-256q0-25.6 25.6-25.6Z" fill="#2A44A1" p-id="1470"></path><path d="M286.72 512m25.6 0l0 0q25.6 0 25.6 25.6l0 256q0 25.6-25.6 25.6l0 0q-25.6 0-25.6-25.6l0-256q0-25.6 25.6-25.6Z" fill="#2A44A1" p-id="1471"></path><path d="M696.32 512m25.6 0l0 0q25.6 0 25.6 25.6l0 256q0 25.6-25.6 25.6l0 0q-25.6 0-25.6-25.6l0-256q0-25.6 25.6-25.6Z" fill="#2A44A1" p-id="1472"></path><path d="M51.2 358.4m51.2 0l819.2 0q51.2 0 51.2 51.2l0 0q0 51.2-51.2 51.2l-819.2 0q-51.2 0-51.2-51.2l0 0q0-51.2 51.2-51.2Z" fill="#2A44A1" p-id="1473"></path><path d="M517.12 742.4A230.6048 230.6048 0 0 1 286.72 512v-97.28a25.6 25.6 0 0 1 51.2 0V512a179.2 179.2 0 0 0 358.4 0v-97.28a25.6 25.6 0 0 1 51.2 0V512a230.6048 230.6048 0 0 1-230.4 230.4z" fill="#FFFFFF" p-id="1474"></path></svg>
