<svg t="1689504208586" class="icon" viewBox="0 0 1024 1024" version="1.1" xmlns="http://www.w3.org/2000/svg" p-id="36635" width="16" height="16"><path d="M736.673054 305.648028c-84.08513-84.084243-120.326211-184.162939-80.953678-223.535473 39.372534-39.371646 139.450343-3.130565 223.535473 80.953677 84.086017 84.08513 120.325324 184.162939 80.953678 223.535473-39.372534 39.372534-139.451231 3.130565-223.535473-80.95279z m-210.521622 24.007209c0-15.910156 40.658302-28.803328 90.81123-28.803327 44.152679 0 80.947466 9.993317 89.119057 23.239653 13.241899 8.190225 23.234329 44.972589 23.23433 89.110184 0 50.152929-12.902045 90.811231-28.812202 90.81123s-28.803328-40.658302-28.803327-90.81123c0-11.377581 0.663737-22.26712 1.874967-32.304804-10.242662 13.496568-23.128735 28.246073-37.878239 42.99469-44.247626 44.247626-88.507674 71.729692-98.854156 61.383209-10.346482-10.346482 17.135584-54.60653 61.38321-98.855043 10.424568-10.423681 20.849137-19.917421 30.830918-28.205255a287.279029 287.279029 0 0 1-12.094558 0.252894c-50.152929 0-90.811231-12.902045-90.81123-28.812201zM343.067508 504.01209c15.910156 0 28.812201 40.658302 28.812201 90.811231 0 7.749213-0.308797 15.272153-0.888236 22.453462 8.593969-10.464499 18.542919-21.446322 29.524742-32.427258 44.247626-44.248513 88.507674-71.730579 98.854156-61.384097 10.347369 10.346482-17.135584 54.607418-61.38321 98.855043-10.286142 10.286142-20.574059 19.667189-30.435161 27.876936a282.689664 282.689664 0 0 1 19.062905-0.635341c50.152929 0 90.811231 12.893172 90.81123 28.803327s-40.658302 28.812201-90.81123 28.812201c-44.138482 0-80.92262-9.993317-89.111071-23.235216-13.247224-8.170704-23.239653-44.96549-23.239654-89.119057 0-50.152929 12.893172-90.811231 28.803328-90.811231z m-36.162108 198.366725c84.084243 84.08513 120.326211 184.162939 80.953678 223.534585-39.372534 39.376971-139.451231 3.13234-223.535473-80.95279-84.08513-84.08513-120.326211-184.162939-80.953678-223.535473 39.371646-39.371646 139.450343-3.131452 223.535473 80.953678z" fill="#89B7FF" p-id="36636"></path></svg>
