<svg t="1689504244256" class="icon" viewBox="0 0 1024 1024" version="1.1" xmlns="http://www.w3.org/2000/svg" p-id="37672" width="16" height="16"><path d="M657.589019 57.679418c25.635494 0 46.426066 65.521802 46.426066 146.359237 0 18.332617-1.069255 35.878156-3.022309 52.049192 16.507341-21.747133 37.273955-45.517421 61.042468-69.286821 71.309976-71.309088 142.644797-115.601081 159.32251-98.923369 16.677712 16.677712-27.620492 88.00721-98.930468 159.315411-16.803716 16.804603-33.609206 32.1087-49.698607 45.467729a463.337816 463.337816 0 0 1 19.49948-0.40818c80.837435 0 146.359237 20.781698 146.359238 46.426066 0 25.635494-65.521802 46.426066-146.359238 46.426066-71.145816 0-130.432222-16.108035-143.615556-37.448763-21.346939-13.180672-37.44965-72.468853-37.44965-143.617331 0-80.837435 20.781698-146.359237 46.426066-146.359237z m-187.369816 489.124159c-50.861033-50.86192-71.547785-112.647099-46.198905-137.995979 25.34888-25.34888 87.14027-4.667452 138.000416 46.192693 50.868132 50.867244 71.542461 112.652423 46.193581 138.001303-25.34888 25.34888-87.128735 4.66834-137.995092-46.198904zM85.41349 685.327529c0-25.644367 65.521802-46.426066 146.350364-46.426066 71.155577 0 130.444645 16.101823 143.626205 37.447875 21.340728 13.185997 37.447875 72.471515 37.447875 143.62443 0 80.828562-20.790572 146.350364-46.426066 146.350364-25.644367 0-46.426066-65.521802-46.426066-146.350364 0-12.493865 0.496028-24.623029 1.430406-36.201151-13.852395 16.866718-29.887667 34.567542-47.588492 52.26748-71.316187 71.316187-142.637698 115.606406-159.315411 98.930468-16.677712-16.677712 27.608069-88.006322 98.924257-159.32251 16.57478-16.57478 33.150447-31.689872 49.041968-44.917573a455.280693 455.280693 0 0 1-30.714676 1.023112c-80.828562 0-146.350364-20.790572-146.350364-46.426065z" fill="#89B7FF" p-id="37673"></path></svg>
