<svg t="1685936111714" class="icon" viewBox="0 0 1024 1024" version="1.1" xmlns="http://www.w3.org/2000/svg" p-id="11389" width="16" height="16"><path d="M661.2992 651.6224m-212.7872 0a212.7872 212.7872 0 1 0 425.5744 0 212.7872 212.7872 0 1 0-425.5744 0Z" fill="#FF8080" p-id="11390"></path><path d="M698.7776 883.5584H325.2224c-98.816 0-179.2-80.384-179.2-179.2V330.8032c0-98.816 80.384-179.2 179.2-179.2h373.5552c98.816 0 179.2 80.384 179.2 179.2v373.5552c0 98.816-80.384 179.2-179.2 179.2zM325.2224 202.8032c-70.6048 0-128 57.3952-128 128v373.5552c0 70.6048 57.3952 128 128 128h373.5552c70.6048 0 128-57.3952 128-128V330.8032c0-70.6048-57.3952-128-128-128H325.2224z" fill="#512C56" p-id="11391"></path><path d="M424.3456 656.9472c-14.1312 0-25.6-11.4688-25.6-25.6V403.8656c0-14.1312 11.4688-25.6 25.6-25.6s25.6 11.4688 25.6 25.6v227.4816c0 14.1312-11.4688 25.6-25.6 25.6zM602.7776 656.9472c-14.1312 0-25.6-11.4688-25.6-25.6V403.8656c0-14.1312 11.4688-25.6 25.6-25.6s25.6 11.4688 25.6 25.6v227.4816c0 14.1312-11.4688 25.6-25.6 25.6z" fill="#512C56" p-id="11392"></path></svg>
