<?xml version="1.0" standalone="no"?><!DOCTYPE svg PUBLIC "-//W3C//DTD SVG 1.1//EN" "http://www.w3.org/Graphics/SVG/1.1/DTD/svg11.dtd"><svg t="1702471325415" class="icon" viewBox="0 0 1024 1024" version="1.1" xmlns="http://www.w3.org/2000/svg" p-id="1762" xmlns:xlink="http://www.w3.org/1999/xlink" width="16" height="16"><path d="M819.2 51.2a153.6 153.6 0 1 0 153.6 153.6A153.6 153.6 0 0 0 819.2 51.2z m0 256a102.4 102.4 0 1 1 102.4-102.4 102.4 102.4 0 0 1-102.4 102.4z" fill="#FF9933" p-id="1763"></path><path d="M768 153.6H550.8096a102.4 102.4 0 0 0-72.3968 30.0032L123.5968 538.3168a102.4 102.4 0 0 0 0 144.896l217.1904 217.1904a102.4 102.4 0 0 0 144.896 0l354.7136-354.816A102.4 102.4 0 0 0 870.4 473.1904V256a102.4 102.4 0 0 0-102.4-102.4z m-51.2 204.8a51.2 51.2 0 1 1 51.2-51.2 51.2 51.2 0 0 1-51.2 51.2z" fill="#3D60F6" p-id="1764"></path><path d="M716.8 204.8a102.4 102.4 0 1 0 102.4 102.4 102.4 102.4 0 0 0-102.4-102.4z m0 153.6a51.2 51.2 0 1 1 51.2-51.2 51.2 51.2 0 0 1-51.2 51.2z" fill="#36C196" p-id="1765"></path><path d="M400.6912 672.6656a19.3536 19.3536 0 0 0-13.2096-6.0416 44.9536 44.9536 0 0 0-18.7392 5.0176 120.2176 120.2176 0 0 1-18.6368 7.2704 38.5024 38.5024 0 0 1-40.96-10.24A37.376 37.376 0 0 1 296.96 643.584a39.3216 39.3216 0 0 1 10.24-26.7264l-15.36-14.9504 10.24-10.24 15.36 14.7456a36.4544 36.4544 0 0 1 27.8528-7.68A51.2 51.2 0 0 1 373.4528 614.4l-15.9744 15.9744a31.6416 31.6416 0 0 0-17.408-10.24 16.896 16.896 0 0 0-15.0528 5.12 19.0464 19.0464 0 0 0-6.3488 13.5168 19.5584 19.5584 0 0 0 6.656 13.7216 18.2272 18.2272 0 0 0 13.1072 6.0416 48.7424 48.7424 0 0 0 18.7392-5.12 137.1136 137.1136 0 0 1 19.2512-7.3728 51.712 51.712 0 0 1 14.4384-1.8432 35.5328 35.5328 0 0 1 13.2096 3.072 41.6768 41.6768 0 0 1 12.4928 8.9088 37.6832 37.6832 0 0 1 11.9808 25.6 41.8816 41.8816 0 0 1-10.24 27.5456l13.312 13.4144-10.24 10.24-13.312-13.2096a42.0864 42.0864 0 0 1-29.9008 10.24 45.9776 45.9776 0 0 1-28.7744-14.7456l16.0768-16.0768a27.8528 27.8528 0 0 0 17.5104 9.216 21.4016 21.4016 0 0 0 16.5888-7.168 22.4256 22.4256 0 0 0 7.68-15.2576 18.944 18.944 0 0 0-6.5536-13.312zM477.4912 595.8656a18.8416 18.8416 0 0 0-13.2096-6.0416 41.984 41.984 0 0 0-18.7392 5.0176 131.1744 131.1744 0 0 1-18.5344 7.2704 38.912 38.912 0 0 1-40.96-10.24 38.2976 38.2976 0 0 1-12.0832-25.3952 40.0384 40.0384 0 0 1 9.4208-26.8288L368.64 525.0048l10.24-10.24 15.1552 15.0528a36.6592 36.6592 0 0 1 28.16-7.5776A49.7664 49.7664 0 0 1 450.56 537.3952L434.2784 552.96a30.72 30.72 0 0 0-17.3056-10.24 16.9984 16.9984 0 0 0-15.1552 5.2224 18.8416 18.8416 0 0 0-6.2464 13.4144 19.456 19.456 0 0 0 6.5536 13.824 18.6368 18.6368 0 0 0 13.1072 5.9392 46.8992 46.8992 0 0 0 18.8416-5.12 130.1504 130.1504 0 0 1 19.2512-7.2704 44.8512 44.8512 0 0 1 14.336-1.8432 34.5088 34.5088 0 0 1 13.2096 2.9696 42.496 42.496 0 0 1 12.5952 9.0112 36.864 36.864 0 0 1 11.8784 25.6 41.5744 41.5744 0 0 1-10.24 27.5456l13.4144 13.312-10.24 10.24-13.312-13.312a41.984 41.984 0 0 1-29.7984 10.24 44.9536 44.9536 0 0 1-28.7744-14.7456l15.9744-15.9744a27.4432 27.4432 0 0 0 17.6128 9.1136 21.2992 21.2992 0 0 0 15.9744-6.2464 22.528 22.528 0 0 0 7.68-15.2576 18.5344 18.5344 0 0 0-6.144-13.5168zM554.3936 518.9632a19.3536 19.3536 0 0 0-13.2096-6.0416 44.9536 44.9536 0 0 0-18.7392 5.0176 120.2176 120.2176 0 0 1-18.6368 7.2704 38.5024 38.5024 0 0 1-40.96-10.24 37.7856 37.7856 0 0 1-12.0832-25.3952 39.3216 39.3216 0 0 1 10.0352-26.4192l-14.9504-14.9504 10.24-10.24L471.04 452.7104a36.4544 36.4544 0 0 1 27.8528-7.68A50.176 50.176 0 0 1 527.1552 460.8l-15.9744 15.9744a31.6416 31.6416 0 0 0-17.408-10.24 16.5888 16.5888 0 0 0-15.0528 5.12 19.0464 19.0464 0 0 0-6.3488 13.5168 19.5584 19.5584 0 0 0 6.656 13.7216 18.6368 18.6368 0 0 0 13.1072 6.0416 47.4112 47.4112 0 0 0 18.7392-5.2224 148.2752 148.2752 0 0 1 19.2512-7.2704 51.712 51.712 0 0 1 14.4384-1.8432 33.5872 33.5872 0 0 1 13.2096 3.072 41.6768 41.6768 0 0 1 12.4928 8.9088 37.1712 37.1712 0 0 1 11.9808 25.6 41.8816 41.8816 0 0 1-10.24 27.5456l13.312 13.4144-10.24 10.24-13.312-13.2096a41.984 41.984 0 0 1-29.7984 10.24 45.9776 45.9776 0 0 1-28.8768-14.7456l16.0768-16.0768a27.8528 27.8528 0 0 0 17.5104 9.216 21.4016 21.4016 0 0 0 16.5888-7.168 22.4256 22.4256 0 0 0 7.168-15.1552 18.944 18.944 0 0 0-6.0416-13.5168z" fill="#FFFFFF" p-id="1766"></path><path d="M819.2 51.2a153.6 153.6 0 0 0-84.7872 25.3952 25.6 25.6 0 0 0-4.096 39.5264 25.8048 25.8048 0 0 0 32.768 2.8672A102.4 102.4 0 1 1 819.2 307.2a101.4784 101.4784 0 0 1-56.2176-16.7936 25.7024 25.7024 0 0 0-32.4608 3.072 25.8048 25.8048 0 0 0 4.5056 39.8336A153.6 153.6 0 0 0 972.8 197.5296 154.8288 154.8288 0 0 0 819.2 51.2z" fill="#FFBA40" p-id="1767"></path></svg>
