<svg t="1702479906724" class="icon" viewBox="0 0 1024 1024" version="1.1" xmlns="http://www.w3.org/2000/svg" p-id="23275" width="16" height="16"><path d="M0 0m512 0l0 0q512 0 512 512l0 0q0 512-512 512l0 0q-512 0-512-512l0 0q0-512 512-512Z" fill="#026BFF" p-id="23276"></path><path d="M273.408 540.32a30.464 30.464 0 0 0 0 43.072l136.832 136.864a32 32 0 0 0 45.28 0l299.456-299.488a32 32 0 0 0-45.248-45.248L442.016 643.2a16 16 0 0 1-22.624 0l-102.88-102.88a30.464 30.464 0 0 0-43.104 0z" fill="#FFFFFF" p-id="23277"></path></svg>
