<svg t="1702480001312" class="icon" viewBox="0 0 1024 1024" version="1.1" xmlns="http://www.w3.org/2000/svg" p-id="904" width="16" height="16"><path d="M1024.050348 523.796842c0-34.814549-2.858548-69.799758-9.002291-104.016999H522.396584v197.111787h282.100246a236.747469 236.747469 0 0 1-104.400983 155.59885v127.909337h168.312987C967.263381 811.230199 1024.050348 679.566351 1024.050348 523.796842z" fill="#4285F4" p-id="905"></path><path d="M522.353919 1024c140.879463 0 259.658514-45.352777 346.225574-123.600183l-168.312987-127.909337c-46.803383 31.230699-107.259531 48.893963-177.699262 48.893962-136.271655 0-251.808175-90.108245-293.235782-211.233865H55.642699v131.834507C144.300338 914.948544 324.858148 1024 522.396584 1024z" fill="#34A853" p-id="906"></path><path d="M229.160802 610.150577a300.915462 300.915462 0 0 1 0-196.045165v-131.834507H55.642699a503.36036 503.36036 0 0 0 0 459.756844L229.160802 610.150577z" fill="#FBBC04" p-id="907"></path><path d="M522.353919 202.700887a287.006708 287.006708 0 0 1 200.354319 76.711471l149.113787-146.127245A507.626849 507.626849 0 0 0 522.439249 0.042665C324.815483 0.042665 144.300338 109.179451 55.600034 282.270905l173.518103 131.834507C270.41775 292.809133 386.124929 202.700887 522.311254 202.700887z" fill="#EA4335" p-id="908"></path></svg>
